<svg width="25" height="25" viewBox="0 0 25 25" fill="none" xmlns="http://www.w3.org/2000/svg">
<g clip-path="url(#clip0_99_390)">
<path d="M19.8 0H5.2C2.3 0 0 2.3 0 5.2V19.8C0 22.7 2.3 25 5.2 25H19.8C22.7 25 25 22.7 25 19.8V5.2C25 2.3 22.7 0 19.8 0ZM12.5 17.4C12 17.4 11.5 17.4 11.1 17.3C10.3 17.9 9.3 18.5 8.5 19.1C8.5 19.1 8.3 19.2 8.2 19.1C8 19 8 18.9 8 18.8C8.2 18.2 8.4 17.3 8.6 16.5C6.6 15.5 5.4 13.7 5.4 11.6C5.4 11 5.5 10.4 5.8 9.8V9.7C6.8 7.4 9.4 5.8 12.6 5.8C16.6 5.8 19.8 8.4 19.8 11.6C19.6 14.8 16.4 17.4 12.5 17.4Z" fill="#0033C3"/>
</g>
<defs>
<clipPath id="clip0_99_390">
<rect width="25" height="25" fill="white"/>
</clipPath>
</defs>
</svg>
