<svg width="70" height="70" viewBox="0 0 70 70" fill="none" xmlns="http://www.w3.org/2000/svg">
<rect width="70" height="70" rx="35" fill="#3B67E1" fill-opacity="0.7"/>
<path d="M35.0003 22.5V35L26.667 39.1667" stroke="white" stroke-width="2" stroke-linecap="round" stroke-linejoin="round"/>
<path d="M53.75 35C53.75 37.4623 53.265 39.9005 52.3227 42.1753C51.3805 44.4502 49.9993 46.5172 48.2582 48.2582C46.5172 49.9993 44.4502 51.3805 42.1753 52.3227C39.9005 53.265 37.4623 53.75 35 53.75C32.5377 53.75 30.0995 53.265 27.8247 52.3227C25.5498 51.3805 23.4828 49.9993 21.7417 48.2582C20.0006 46.5172 18.6195 44.4502 17.6773 42.1753C16.735 39.9005 16.25 37.4623 16.25 35C16.25 30.0272 18.2254 25.2581 21.7417 21.7417C25.2581 18.2254 30.0272 16.25 35 16.25C39.9728 16.25 44.7419 18.2254 48.2582 21.7417C51.7746 25.2581 53.75 30.0272 53.75 35Z" stroke="white" stroke-width="2" stroke-linecap="round" stroke-linejoin="round"/>
</svg>
